<?xml version="1.0" standalone="no"?>
<!DOCTYPE svg PUBLIC "-//W3C//DTD SVG 20010904//EN"
 "http://www.w3.org/TR/2001/REC-SVG-20010904/DTD/svg10.dtd">
<svg version="1.0" xmlns="http://www.w3.org/2000/svg"
 width="2500.000000pt" height="1000.000000pt" viewBox="0 0 2500.000000 1000.000000"
 preserveAspectRatio="xMidYMid meet">

<g transform="translate(0.000000,1000.000000) scale(0.100000,-0.100000)"
fill="#000000" stroke="none">
<path d="M18835 9300 c-150 -24 -372 -109 -492 -191 -237 -161 -414 -392 -502
-656 -35 -106 -61 -244 -61 -326 0 -32 -5 -68 -12 -80 -15 -29 -178 -248 -527
-706 -158 -207 -351 -461 -431 -566 -79 -104 -306 -404 -505 -665 -436 -575
-407 -532 -412 -585 -7 -61 10 -104 67 -165 28 -30 50 -57 50 -60 0 -4 -8 -18
-18 -31 -78 -105 -143 -303 -163 -497 -10 -101 -10 -131 5 -222 50 -313 212
-557 480 -720 343 -208 819 -182 1133 64 32 24 257 244 500 488 328 329 443
451 448 473 4 17 9 36 11 43 8 25 -18 99 -43 127 -50 53 -134 70 -196 39 -18
-9 -230 -213 -472 -454 -473 -471 -509 -501 -649 -546 -240 -78 -510 -17 -679
154 -82 83 -130 162 -165 272 -23 73 -27 102 -26 205 0 119 13 189 50 272 8
17 14 35 14 40 0 4 7 17 15 28 15 19 16 18 45 -17 65 -79 189 -102 253 -48 6
6 39 31 72 56 101 76 209 157 220 166 5 4 35 27 65 51 30 23 82 63 115 87 33
24 65 48 70 52 6 5 21 17 34 28 13 11 27 20 30 20 3 0 17 10 31 23 14 13 61
49 105 82 44 32 84 62 90 67 5 4 35 27 65 50 30 24 82 63 115 88 33 24 65 49
71 55 6 5 22 17 34 25 13 8 37 26 54 40 17 14 58 46 91 70 58 43 73 54 98 75
7 6 57 44 112 85 55 41 105 79 111 85 6 5 22 17 34 25 13 8 37 27 54 41 17 14
67 52 111 84 44 32 82 61 85 65 3 3 50 39 105 80 111 83 111 83 142 108 12 9
34 26 49 37 15 11 54 41 88 68 34 26 66 51 71 55 6 4 26 19 45 32 19 14 41 31
48 37 17 16 31 19 172 33 154 15 280 49 400 107 354 171 588 456 692 843 20
75 23 108 23 285 -1 215 -9 269 -71 434 -141 381 -460 667 -859 768 -82 20
-129 26 -265 28 -91 2 -192 0 -225 -5z m350 -340 c88 -19 131 -31 150 -40 11
-5 46 -21 79 -35 204 -90 380 -288 454 -510 27 -80 52 -225 52 -302 0 -83 -32
-245 -66 -329 -27 -71 -99 -200 -116 -210 -18 -11 -231 141 -398 284 -349 300
-626 612 -825 931 l-27 44 23 19 c39 31 220 115 274 128 28 6 66 15 85 20 48
11 266 11 315 0z m-813 -610 c157 -211 229 -292 473 -535 197 -196 454 -414
589 -499 l28 -18 -57 -29 c-32 -16 -62 -29 -67 -29 -6 0 -24 -6 -41 -14 -121
-54 -362 -67 -509 -28 -550 148 -816 739 -572 1271 25 53 27 55 40 36 8 -11
60 -81 116 -155z m-397 -960 c67 -102 176 -219 277 -298 78 -61 202 -135 251
-151 20 -7 37 -16 37 -19 -1 -4 -37 -34 -82 -67 -45 -33 -120 -92 -167 -131
-74 -61 -1269 -972 -1684 -1284 l-139 -104 -79 80 c-44 43 -84 86 -89 96 -8
13 36 76 217 315 278 364 452 594 624 821 72 94 135 172 141 172 5 0 39 -29
74 -64 78 -76 125 -95 194 -76 106 29 157 150 105 250 -8 14 -45 59 -84 100
-39 41 -70 78 -71 83 0 4 52 76 116 160 64 83 146 191 182 238 l65 87 41 -82
c23 -44 55 -101 71 -126z"/>
<path d="M6155 4195 c-175 -25 -314 -66 -461 -134 -374 -176 -727 -585 -863
-1001 -82 -251 -101 -378 -101 -675 1 -289 39 -540 106 -692 8 -17 14 -36 14
-42 0 -6 4 -19 9 -29 5 -9 32 -62 59 -117 110 -221 281 -432 473 -583 75 -59
238 -156 319 -191 30 -13 69 -30 87 -37 17 -8 37 -14 45 -14 8 0 18 -4 24 -9
11 -10 70 -25 209 -52 134 -25 546 -27 687 -3 261 44 506 162 714 342 122 107
204 212 204 263 0 31 -62 134 -222 370 -139 206 -182 259 -210 259 -10 0 -68
-37 -126 -83 -136 -106 -152 -117 -239 -161 -102 -52 -172 -73 -304 -93 -103
-15 -128 -16 -210 -4 -175 24 -293 79 -405 188 -109 106 -183 236 -232 408
-24 83 -26 106 -27 290 0 177 3 210 23 289 54 208 174 390 322 487 106 70 183
98 308 112 263 29 494 -48 723 -243 172 -147 161 -140 202 -119 32 18 49 41
146 204 154 257 234 413 246 478 11 59 -34 121 -175 239 -222 187 -466 293
-789 344 -139 22 -433 26 -556 9z"/>
<path d="M10820 4105 c-11 -13 -11 -47 -2 -173 7 -86 14 -168 17 -181 2 -13
10 -132 16 -265 8 -171 10 -608 6 -1498 -5 -1209 -5 -1258 13 -1280 34 -44 98
-52 430 -52 332 0 420 10 446 49 10 16 11 138 2 655 -11 676 -2 1388 27 2050
28 660 29 679 15 695 -11 13 -75 15 -485 15 -414 0 -474 -2 -485 -15z"/>
<path d="M12310 3851 c-22 -43 -32 -191 -33 -523 -2 -305 -4 -349 -18 -363
-10 -10 -46 -20 -87 -25 -39 -5 -86 -16 -105 -24 l-34 -14 -5 -298 c-3 -206
-1 -305 6 -317 14 -23 74 -39 115 -31 44 9 119 -14 138 -43 16 -25 16 -95 -3
-848 -6 -217 -4 -260 10 -320 31 -125 77 -202 159 -265 29 -22 57 -44 62 -48
6 -4 37 -19 70 -31 33 -13 69 -28 80 -32 39 -17 162 -32 300 -36 108 -3 167 0
260 16 135 22 215 40 230 51 6 4 23 10 39 14 56 13 234 105 270 139 34 33 36
38 36 98 0 35 7 136 15 224 19 211 19 238 -4 266 l-19 24 -166 -34 c-194 -40
-265 -39 -354 5 -110 54 -132 139 -132 518 0 196 3 256 14 271 12 17 27 18
284 11 l270 -7 25 23 25 23 5 357 c5 296 3 358 -8 368 -10 8 -90 10 -297 4
-269 -6 -284 -6 -299 12 -26 30 -27 71 -13 369 7 154 14 292 14 306 0 54 -9
57 -255 89 -127 16 -292 43 -368 60 -164 36 -212 38 -227 11z"/>
<path d="M19835 3160 c-326 -51 -580 -199 -768 -449 -201 -267 -286 -590 -257
-979 6 -80 15 -152 19 -161 5 -9 12 -34 15 -56 36 -198 193 -460 361 -600 27
-22 53 -44 59 -50 31 -29 111 -78 186 -115 47 -23 92 -45 100 -49 8 -4 49 -18
90 -30 41 -12 89 -26 105 -31 49 -16 283 -40 380 -40 216 1 463 44 605 106
127 56 196 100 283 183 67 63 79 88 65 137 -21 77 -198 409 -248 467 -13 15
-31 27 -39 27 -9 0 -54 -25 -101 -56 -111 -73 -161 -98 -273 -136 -88 -31 -99
-32 -247 -33 -127 0 -165 3 -210 19 -153 53 -245 122 -291 220 l-29 61 147 11
c82 6 225 16 318 23 94 6 186 13 205 17 19 3 107 12 195 19 528 47 520 46 573
84 16 11 41 44 57 73 57 107 42 366 -32 573 -105 293 -331 544 -606 676 -137
65 -255 91 -442 95 -88 1 -187 -1 -220 -6z m251 -662 c55 -27 111 -81 151
-144 31 -49 69 -174 60 -197 -9 -23 -146 -49 -357 -67 -135 -12 -300 -13 -317
-2 -20 13 -24 55 -13 125 24 153 126 279 250 308 58 13 178 2 226 -23z"/>
<path d="M17720 3089 c-103 -25 -372 -72 -549 -97 -241 -34 -241 -35 -222
-119 7 -32 19 -96 27 -143 8 -47 19 -110 24 -140 29 -155 34 -299 39 -1067 5
-723 8 -804 22 -819 34 -33 150 -44 461 -44 324 0 389 7 415 47 14 20 14 50 4
241 -21 417 -25 846 -8 955 30 194 96 225 453 211 167 -6 184 -5 213 12 18 10
34 29 38 42 3 13 7 144 8 291 1 146 7 327 13 401 13 155 8 174 -54 186 -58 11
-222 -3 -296 -25 -85 -25 -226 -92 -347 -164 -51 -31 -97 -55 -101 -52 -4 2
-13 39 -19 82 -22 139 -31 177 -48 195 -18 20 -21 20 -73 7z"/>
<path d="M8062 3003 c-75 -31 -143 -386 -157 -828 -10 -325 18 -821 56 -960
47 -172 102 -278 189 -365 46 -46 167 -130 187 -130 3 0 19 -7 36 -15 86 -39
212 -57 372 -53 166 5 205 15 370 94 85 41 197 103 205 114 3 4 38 26 78 50
40 23 75 46 78 51 20 33 40 -31 49 -158 6 -80 10 -96 32 -117 35 -35 79 -38
459 -34 310 3 331 4 364 24 63 37 63 38 50 407 -15 410 -15 1057 -1 1277 6 91
11 262 11 381 0 199 -2 219 -19 240 l-19 24 -414 3 c-399 3 -415 2 -439 -17
l-24 -19 -5 -664 -5 -663 -28 -57 c-32 -66 -117 -149 -198 -193 -49 -27 -62
-30 -149 -30 -84 0 -101 3 -146 27 -108 57 -147 143 -163 358 -27 355 -21 643
20 1050 14 143 14 170 -5 189 -15 14 -60 16 -394 18 -207 1 -383 -1 -390 -4z"/>
<path d="M14216 2983 c-44 -44 -95 -247 -118 -470 -17 -171 -17 -870 0 -1053
31 -334 112 -526 278 -660 24 -20 123 -80 130 -80 3 0 20 -7 37 -15 85 -39
211 -57 372 -53 164 5 196 13 369 93 73 34 237 127 261 147 21 18 117 78 125
78 5 0 11 -26 15 -57 16 -156 28 -215 48 -233 29 -28 106 -32 463 -28 289 3
322 5 354 22 64 34 62 25 54 316 -21 855 -21 964 5 1530 11 243 8 433 -9 459
-4 7 -25 17 -46 21 -43 11 -793 14 -818 4 -40 -15 -41 -27 -46 -714 l-5 -665
-23 -40 c-42 -71 -132 -153 -209 -192 -69 -34 -76 -35 -156 -31 -70 4 -93 9
-138 34 -63 36 -110 98 -133 178 -47 160 -47 830 0 1239 18 157 12 179 -47
191 -17 3 -190 6 -384 6 l-352 0 -27 -27z"/>
</g>
</svg>
